<svg t="1612249743615" class="icon" viewBox="0 0 1024 1024" version="1.1" xmlns="http://www.w3.org/2000/svg" p-id="1143" width="128" height="128"><path d="M488.890676 114.623597l20.955264 0c144.664797 0 261.940804 118.29522 261.940804 264.216637 0 0 0 10.467399 0 146.44842 0 102.221126 146.68685 265.732154 146.68685 265.732154L80.263022 791.020808c0 0 146.68992-163.511028 146.68992-265.732154 0-135.981021 0-146.44842 0-146.44842C226.952942 232.918817 344.221786 114.623597 488.890676 114.623597zM604.14463 833.29461l0 73.979922c0 52.535517-42.215474 95.120404-94.298689 95.120404l-20.955264 0c-52.079122 0-94.298689-42.584887-94.298689-95.120404l0-73.979922L604.14463 833.29461zM499.368308 30.071899c34.718733 0 62.865793 28.39163 62.865793 63.412239s-28.14706 63.412239-62.865793 63.412239-62.865793-28.39163-62.865793-63.412239S464.649576 30.071899 499.368308 30.071899z" p-id="1144"></path></svg>