<svg t="1612244298820" viewBox="0 0 1024 1024" xmlns="http://www.w3.org/2000/svg" width="200" height="200"><path d="M0 48.7424m51.2 0l336.4352 0q51.2 0 51.2 51.2l0 336.4352q0 51.2-51.2 51.2l-336.4352 0q-51.2 0-51.2-51.2l0-336.4352q0-51.2 51.2-51.2Z" p-id="13708"></path><path d="M0 585.1648m51.2 0l336.4352 0q51.2 0 51.2 51.2l0 336.4352q0 51.2-51.2 51.2l-336.4352 0q-51.2 0-51.2-51.2l0-336.4352q0-51.2 51.2-51.2Z" ></path><path d="M791.9104 65.2288l166.912 166.8608a51.2 51.2 0 0 1 0 72.3968l-166.912 166.912a51.2 51.2 0 0 1-72.3968 0l-166.912-166.912a51.2 51.2 0 0 1 0-72.3968l166.912-166.912a51.2 51.2 0 0 1 72.3968 0z"></path><path d="M536.3712 585.1648m51.2 0l336.4352 0q51.2 0 51.2 51.2l0 336.4352q0 51.2-51.2 51.2l-336.4352 0q-51.2 0-51.2-51.2l0-336.4352q0-51.2 51.2-51.2Z" ></path></svg>