<svg t="1614244623938" class="icon" viewBox="0 0 1000 1000" version="1.1" xmlns="http://www.w3.org/2000/svg" p-id="21067" width="300" height="300"><path d="M128 298.666667a213.333333 192 90 1 0 384 0 213.333333 192 90 1 0-384 0Z" p-id="21068"></path><path d="M554.666667 405.333333a192 170.666667 90 1 0 341.333333 0 192 170.666667 90 1 0-341.333333 0Z" p-id="21069"></path><path d="M810.666667 640h-128c-119.466667 0-213.333333 98.133333-213.333334 213.333333 0 46.933333 38.4 85.333333 85.333334 85.333334h384c46.933333 0 85.333333-38.4 85.333333-85.333334 0-115.2-93.866667-213.333333-213.333333-213.333333z" p-id="21070"></path><path d="M533.333333 631.466667c12.8-8.533333 12.8-29.866667 0-38.4-42.666667-25.6-93.866667-42.666667-149.333333-42.666667H298.666667c-166.4 0-298.666667 136.533333-298.666667 302.933333 0 51.2 38.4 85.333333 85.333333 85.333334h320c17.066667 0 29.866667-12.8 25.6-29.866667-4.266667-17.066667-4.266667-38.4-4.266666-55.466667 0-106.666667 38.4-179.2 106.666666-221.866666z" p-id="21071"></path></svg>